<?xml version="1.0" encoding="utf-8"?>
<!-- Generator: Adobe Illustrator 16.0.0, SVG Export Plug-In . SVG Version: 6.00 Build 0)  -->
<!DOCTYPE svg PUBLIC "-//W3C//DTD SVG 1.1//EN" "http://www.w3.org/Graphics/SVG/1.1/DTD/svg11.dtd">
<svg version="1.1" id="Layer_1" xmlns="http://www.w3.org/2000/svg" xmlns:xlink="http://www.w3.org/1999/xlink" x="0px" y="0px"
	 width="25px" height="30px" viewBox="0 0 25 30" enable-background="new 0 0 25 30" xml:space="preserve">
<path fill="#FFFFFF" d="M24.526,11.816c0.19-0.151,0.474-0.01,0.474,0.229v9.985c0,1.294-1.05,2.344-2.344,2.344H2.344
	C1.05,24.375,0,23.325,0,22.031v-9.98c0-0.244,0.278-0.381,0.474-0.229c1.094,0.85,2.544,1.929,7.524,5.547
	c1.03,0.752,2.769,2.334,4.502,2.324c1.743,0.015,3.516-1.602,4.507-2.324C21.987,13.75,23.433,12.666,24.526,11.816z M12.5,18.125
	c1.133,0.02,2.764-1.426,3.584-2.021c6.479-4.702,6.973-5.112,8.467-6.284C24.834,9.6,25,9.258,25,8.896V7.969
	c0-1.294-1.05-2.344-2.344-2.344H2.344C1.05,5.625,0,6.675,0,7.969v0.928c0,0.361,0.166,0.698,0.449,0.923
	c1.494,1.167,1.987,1.582,8.467,6.284C9.736,16.699,11.367,18.145,12.5,18.125z"/>
</svg>
