<?xml version="1.0" encoding="utf-8"?>
<!-- Generator: Adobe Illustrator 16.0.0, SVG Export Plug-In . SVG Version: 6.00 Build 0)  -->
<!DOCTYPE svg PUBLIC "-//W3C//DTD SVG 1.1//EN" "http://www.w3.org/Graphics/SVG/1.1/DTD/svg11.dtd">
<svg version="1.1" id="Layer_1" xmlns="http://www.w3.org/2000/svg" xmlns:xlink="http://www.w3.org/1999/xlink" x="0px" y="0px"
	 width="25px" height="30px" viewBox="0 0 25 30" enable-background="new 0 0 25 30" xml:space="preserve">
<path fill="#2D4C6B" d="M20,9.107v11.785c0,0.888-0.72,1.607-1.607,1.607h-2.855v-5.934h2.029l0.291-2.263h-2.32v-1.446
	c0-0.656,0.181-1.102,1.121-1.102h1.199V9.733c-0.208-0.027-0.918-0.091-1.748-0.091c-1.728,0-2.913,1.055-2.913,2.994v1.67h-2.036
	v2.264h2.039v5.93H6.607C5.72,22.5,5,21.78,5,20.893V9.107C5,8.22,5.72,7.5,6.607,7.5h11.785C19.28,7.5,20,8.22,20,9.107z"/>
</svg>
