<?xml version="1.0" encoding="utf-8"?>
<!-- Generator: Adobe Illustrator 16.0.0, SVG Export Plug-In . SVG Version: 6.00 Build 0)  -->
<!DOCTYPE svg PUBLIC "-//W3C//DTD SVG 1.1//EN" "http://www.w3.org/Graphics/SVG/1.1/DTD/svg11.dtd">
<svg version="1.1" id="Layer_1" xmlns="http://www.w3.org/2000/svg" xmlns:xlink="http://www.w3.org/1999/xlink" x="0px" y="0px"
	 width="25px" height="30px" viewBox="0 0 25 30" enable-background="new 0 0 25 30" xml:space="preserve">
<path fill="#FFFFFF" d="M25,5.179v19.643c0,1.479-1.199,2.679-2.679,2.679h-4.76v-9.889h3.382l0.485-3.772h-3.867v-2.411
	c0-1.094,0.302-1.836,1.869-1.836h1.998V6.222c-0.347-0.045-1.529-0.151-2.913-0.151c-2.879,0-4.855,1.758-4.855,4.989v2.785h-3.392
	v3.772h3.398V27.5H2.679C1.2,27.5,0,26.301,0,24.821V5.179C0,3.7,1.2,2.5,2.679,2.5h19.643C23.801,2.5,25,3.7,25,5.179z"/>
</svg>
