<?xml version="1.0" encoding="utf-8"?>
<!-- Generator: Adobe Illustrator 16.0.0, SVG Export Plug-In . SVG Version: 6.00 Build 0)  -->
<!DOCTYPE svg PUBLIC "-//W3C//DTD SVG 1.1//EN" "http://www.w3.org/Graphics/SVG/1.1/DTD/svg11.dtd">
<svg version="1.1" id="Layer_1" xmlns="http://www.w3.org/2000/svg" xmlns:xlink="http://www.w3.org/1999/xlink" x="0px" y="0px"
	 width="25px" height="30px" viewBox="0 0 25 30" enable-background="new 0 0 25 30" xml:space="preserve">
<path fill="#2D4C6B" d="M18.393,7.5H6.607C5.72,7.5,5,8.22,5,9.107v11.785C5,21.78,5.72,22.5,6.607,22.5h11.785
	C19.28,22.5,20,21.78,20,20.893V9.107C20,8.22,19.28,7.5,18.393,7.5z M16.756,12.817c0.006,0.094,0.006,0.191,0.006,0.285
	c0,2.902-2.209,6.248-6.247,6.248c-1.246,0-2.401-0.361-3.372-0.984c0.178,0.02,0.349,0.026,0.529,0.026
	c1.028,0,1.972-0.349,2.726-0.938c-0.964-0.021-1.774-0.653-2.053-1.523c0.338,0.05,0.643,0.05,0.991-0.04
	c-1.004-0.204-1.758-1.088-1.758-2.156v-0.027c0.291,0.164,0.633,0.265,0.991,0.278c-0.612-0.407-0.979-1.093-0.978-1.828
	c0-0.408,0.107-0.783,0.298-1.108c1.081,1.333,2.705,2.203,4.526,2.297c-0.311-1.49,0.804-2.698,2.143-2.698
	c0.633,0,1.203,0.265,1.604,0.693c0.495-0.094,0.971-0.278,1.393-0.529c-0.164,0.509-0.509,0.938-0.964,1.208
	c0.441-0.047,0.87-0.17,1.266-0.341C17.559,12.117,17.184,12.506,16.756,12.817z"/>
</svg>
