<?xml version="1.0" encoding="utf-8"?>
<!-- Generator: Adobe Illustrator 16.0.0, SVG Export Plug-In . SVG Version: 6.00 Build 0)  -->
<!DOCTYPE svg PUBLIC "-//W3C//DTD SVG 1.1//EN" "http://www.w3.org/Graphics/SVG/1.1/DTD/svg11.dtd">
<svg version="1.1" id="Layer_1" xmlns="http://www.w3.org/2000/svg" xmlns:xlink="http://www.w3.org/1999/xlink" x="0px" y="0px"
	 width="25px" height="30px" viewBox="0 0 25 30" enable-background="new 0 0 25 30" xml:space="preserve">
<path fill="#FFFFFF" d="M22.321,2.5H2.679C1.2,2.5,0,3.7,0,5.179v19.643C0,26.301,1.2,27.5,2.679,27.5h19.643
	c1.479,0,2.679-1.199,2.679-2.679V5.179C25,3.7,23.801,2.5,22.321,2.5z M19.593,11.362c0.011,0.156,0.011,0.318,0.011,0.474
	c0,4.838-3.683,10.413-10.413,10.413c-2.076,0-4.001-0.603-5.62-1.641c0.296,0.033,0.581,0.044,0.882,0.044
	c1.713,0,3.287-0.58,4.542-1.562c-1.607-0.033-2.958-1.088-3.421-2.539c0.563,0.084,1.071,0.084,1.652-0.066
	c-1.674-0.34-2.93-1.813-2.93-3.594v-0.044c0.485,0.273,1.055,0.44,1.652,0.463c-1.02-0.678-1.631-1.822-1.629-3.047
	c0-0.681,0.178-1.306,0.497-1.847c1.802,2.221,4.509,3.672,7.544,3.828c-0.519-2.483,1.339-4.498,3.571-4.498
	c1.055,0,2.004,0.441,2.674,1.155c0.825-0.156,1.617-0.463,2.32-0.882c-0.273,0.848-0.848,1.562-1.606,2.015
	c0.736-0.078,1.45-0.285,2.109-0.569C20.932,10.195,20.307,10.843,19.593,11.362z"/>
</svg>
